<svg width="208" height="32" xmlns="http://www.w3.org/2000/svg" xmlns:xlink="http://www.w3.org/1999/xlink">
  <defs>
    <path id="a" d="M.104.025h9.382V10.43H.104z"/>
    <path id="c" d="M.875.025h9.382V10.43H.875z"/>
    <path id="e" d="M.044.042h5.955v12.672H.044z"/>
  </defs>
  <g fill="none" fill-rule="evenodd">
    <g fill-rule="nonzero">
      <path d="M62.185 25.633c-2.5 2-5.678 3.2-9.159 3.2H14.532c-4.292 0-8.145-1.833-10.78-4.733l2.5 3.1c2.67 2.933 6.523 4.8 10.815 4.8h38.494c3.481 0 6.658-1.2 9.159-3.2l-2.535-3.167z" fill="#539ED0"/>
      <path d="M70.465 28.8c-3.853 0-6.624-1.733-8.28-3.2l2.535 3.133A12.775 12.775 0 0 0 69.45 31.4c1.048.333 2.23.533 3.549.533L70.465 28.8z" fill="#FF443B"/>
      <path d="M70.668 25.1c-.338-1.967-.574-4.433-.574-7.433 0-3.134-1.014-6-2.738-8.334L64.382 5.6c1.994 2.467 3.177 5.567 3.177 8.933 0 10.467 2.906 14.3 2.906 14.3L73 31.967c-.034 0-1.487-1.967-2.332-6.867z" fill="#FFB351"/>
      <path d="M70.465 28.8s-2.906-3.833-2.906-14.3c0-7.9-6.49-14.333-14.533-14.333H14.532C6.522.167 0 6.567 0 14.5c0 7.9 6.489 14.333 14.532 14.333h38.494c3.481 0 6.658-1.2 9.16-3.2 1.655 1.434 4.426 3.167 8.28 3.167z" fill="#005191"/>
      <g fill="#FFF">
        <path d="M25.888 21.833h-10.24v-2.166l4.731-4.9c1.15-1.3 1.758-2.334 1.758-3.134 0-.633-.136-1.1-.406-1.433-.27-.333-.676-.5-1.183-.5s-.946.2-1.25.667c-.338.433-.473.966-.473 1.633H15.41c0-.9.237-1.7.676-2.467.44-.766 1.082-1.333 1.859-1.766.81-.434 1.69-.634 2.67-.634 1.588 0 2.805.367 3.684 1.1.844.734 1.284 1.767 1.284 3.134 0 .566-.102 1.133-.338 1.666-.203.534-.54 1.1-1.014 1.7-.473.6-1.183 1.4-2.197 2.367l-1.892 2.167h5.779l-.034 2.566zM37.818 21.833h-3.413v-10.7l-3.346.967V9.567l6.455-2.2h.304zM51.506 21.833h-3.414v-10.7l-3.346.967V9.567l6.455-2.2h.305zM29.47 17.5a1.31 1.31 0 0 1-1.318-1.3c0-.733.609-1.3 1.318-1.3.744 0 1.318.6 1.318 1.3.034.7-.574 1.3-1.318 1.3zM42.482 17.5a1.31 1.31 0 0 1-1.318-1.3c0-.733.608-1.3 1.318-1.3.743 0 1.318.6 1.318 1.3.034.7-.575 1.3-1.318 1.3z"/>
      </g>
    </g>
    <g transform="translate(84.283 11.706)">
      <mask id="b" fill="#fff">
        <use xlink:href="#a"/>
      </mask>
      <path d="M2.778 5.325c0 .914.16 1.647.478 2.2.318.553.832.828 1.543.828.693 0 1.2-.277 1.522-.833.32-.555.483-1.288.483-2.195V5.13c0-.89-.164-1.615-.488-2.178-.325-.56-.837-.843-1.534-.843-.694 0-1.2.283-1.521.848-.322.566-.483 1.29-.483 2.173v.194zM.104 5.13c0-1.495.413-2.72 1.24-3.674C2.17.503 3.316.025 4.781.025c1.47 0 2.622.477 3.454 1.428.834.95 1.25 2.177 1.25 3.678v.194c0 1.506-.415 2.735-1.245 3.682-.83.949-1.977 1.422-3.442 1.422-1.47 0-2.62-.473-3.45-1.422C.52 8.06.104 6.831.104 5.325V5.13z" fill="#FFF" fill-rule="nonzero" mask="url(#b)"/>
    </g>
    <path d="M95.983 21.94v-8.123h-1.48v-1.9h1.48v-1.111c0-1.125.322-1.99.966-2.599.643-.608 1.546-.91 2.71-.91.226 0 .458.015.694.048.235.036.495.084.776.144L100.9 9.5c-.147-.023-.29-.045-.427-.063-.139-.02-.3-.029-.483-.029-.436 0-.764.121-.988.362-.223.241-.335.587-.335 1.037v1.11h1.911v1.901h-1.911v8.124h-2.684zM116.771 17.475l.018.056c.024 1.44-.411 2.566-1.305 3.382-.894.815-2.13 1.222-3.703 1.222-1.605 0-2.901-.52-3.888-1.56-.986-1.041-1.48-2.387-1.48-4.035v-2.677c0-1.643.482-2.987 1.444-4.033.96-1.047 2.223-1.57 3.786-1.57 1.63 0 2.903.4 3.823 1.203.918.802 1.366 1.933 1.341 3.39l-.018.057h-2.61c0-.866-.207-1.509-.62-1.933-.414-.423-1.053-.634-1.916-.634-.803 0-1.429.325-1.88.977-.45.652-.675 1.494-.675 2.524v2.696c0 1.038.237 1.884.712 2.538.476.656 1.135.982 1.981.982.802 0 1.4-.211 1.796-.634.395-.423.593-1.073.593-1.95h2.601z" fill="#FFF" fill-rule="nonzero"/>
    <g transform="translate(117.297 11.706)">
      <mask id="d" fill="#fff">
        <use xlink:href="#c"/>
      </mask>
      <path d="M3.548 5.325c0 .914.16 1.647.479 2.2.317.553.832.828 1.543.828.693 0 1.2-.277 1.521-.833.321-.555.483-1.288.483-2.195V5.13c0-.89-.163-1.615-.487-2.178-.325-.56-.837-.843-1.534-.843-.694 0-1.2.283-1.522.848-.322.566-.483 1.29-.483 2.173v.194zM.875 5.13c0-1.495.413-2.72 1.24-3.674C2.941.503 4.087.025 5.552.025c1.47 0 2.621.477 3.453 1.428.835.95 1.251 2.177 1.251 3.678v.194c0 1.506-.415 2.735-1.245 3.682-.83.949-1.977 1.422-3.442 1.422-1.47 0-2.62-.473-3.45-1.422C1.29 8.06.875 6.831.875 5.325V5.13z" fill="#FFF" fill-rule="nonzero" mask="url(#d)"/>
    </g>
    <path d="M131.662 11.917l.119 1.437c.331-.512.74-.911 1.223-1.196a3.153 3.153 0 0 1 1.626-.426c1.005 0 1.788.326 2.353.977.563.653.844 1.683.844 3.09v6.142h-2.692v-6.133c0-.716-.124-1.223-.372-1.524-.247-.298-.62-.448-1.116-.448-.399 0-.75.074-1.053.226a2.06 2.06 0 0 0-.748.626v7.253h-2.684V11.917h2.5zM142.334 11.917l.12 1.437c.33-.512.739-.911 1.223-1.196a3.153 3.153 0 0 1 1.626-.426c1.004 0 1.788.326 2.352.977.564.653.845 1.683.845 3.09v6.142h-2.693v-6.133c0-.716-.123-1.223-.372-1.524-.247-.298-.62-.448-1.115-.448-.4 0-.75.074-1.054.226a2.06 2.06 0 0 0-.748.626v7.253h-2.684V11.917h2.5zM154.619 13.817c-.54 0-.955.186-1.246.56-.29.374-.467.87-.527 1.487l.018.047h3.27v-.205c0-.586-.12-1.048-.358-1.385-.238-.336-.624-.504-1.157-.504m.174 8.318c-1.483 0-2.64-.459-3.473-1.375-.834-.918-1.251-2.099-1.251-3.543v-.372c0-1.5.406-2.729 1.214-3.685.809-.958 1.92-1.433 3.336-1.428 1.335 0 2.36.413 3.074 1.237.714.824 1.07 1.935 1.07 3.33v1.399h-5.926l-.029.055c.042.687.25 1.242.62 1.667.371.427.921.64 1.65.64.6 0 1.111-.061 1.53-.185.42-.124.853-.312 1.3-.564l.727 1.667c-.4.327-.938.601-1.618.824a7.102 7.102 0 0 1-2.224.333M164.556 20.06c.466 0 .837-.14 1.112-.422.277-.28.414-.654.414-1.125h2.445l.019.056c.024 1.012-.35 1.86-1.123 2.543-.77.683-1.726 1.022-2.867 1.022-1.47 0-2.606-.473-3.41-1.421-.802-.948-1.202-2.16-1.202-3.636V16.8c0-1.47.399-2.682 1.198-3.636.8-.954 1.931-1.432 3.396-1.432 1.213 0 2.19.352 2.932 1.057.741.703 1.1 1.629 1.076 2.779l-.02.054h-2.444c0-.517-.136-.948-.41-1.291-.271-.343-.65-.514-1.134-.514-.693 0-1.185.279-1.474.839-.291.558-.438 1.273-.438 2.144v.277c0 .89.147 1.61.438 2.158.29.55.788.825 1.492.825" fill="#FFF" fill-rule="nonzero"/>
    <g transform="translate(169.317 9.42)">
      <mask id="f" fill="#fff">
        <use xlink:href="#e"/>
      </mask>
      <path d="M4.17.042v2.454h1.682v1.9H4.17V9.5c0 .39.08.667.243.834.161.167.376.25.639.25.14 0 .263-.008.368-.023.103-.016.223-.042.357-.079L6 12.437c-.27.092-.531.162-.785.208-.255.047-.532.07-.831.07-.927 0-1.639-.257-2.138-.77-.5-.512-.748-1.324-.748-2.436V4.397H.044v-1.9h1.453V.041h2.674z" fill="#FFF" fill-rule="nonzero" mask="url(#f)"/>
    </g>
    <path d="M176.79 21.94h2.684V11.918h-2.684V21.94zm0-12.421h2.684V7.49h-2.684V9.52zM185.808 20.06c.466 0 .837-.14 1.112-.422.277-.28.414-.654.414-1.125h2.444l.02.056c.024 1.012-.35 1.86-1.123 2.543-.77.683-1.726 1.022-2.867 1.022-1.47 0-2.607-.473-3.41-1.421-.802-.948-1.202-2.16-1.202-3.636V16.8c0-1.47.399-2.682 1.198-3.636.8-.954 1.93-1.432 3.396-1.432 1.213 0 2.19.352 2.932 1.057.741.703 1.1 1.629 1.076 2.779l-.02.054h-2.444c0-.517-.136-.948-.41-1.291-.271-.343-.65-.514-1.134-.514-.693 0-1.185.279-1.474.839-.292.558-.438 1.273-.438 2.144v.277c0 .89.146 1.61.438 2.158.289.55.788.825 1.492.825M197.452 20.459c-.307.537-.695.95-1.166 1.24-.473.29-1.022.436-1.645.436-1.048 0-1.868-.359-2.458-1.074-.592-.717-.888-1.828-.888-3.335v-5.81h2.675v5.828c0 .878.117 1.478.353 1.801.236.325.602.487 1.098.487.43 0 .797-.07 1.103-.209.306-.138.558-.343.754-.615v-7.291h2.684V21.94h-2.225l-.285-1.482zM205.23 9.463v2.454h1.682v1.9h-1.681v5.103c0 .39.081.668.243.834a.85.85 0 0 0 .639.25c.14 0 .264-.007.368-.022.103-.016.224-.042.359-.079l.22 1.954c-.27.093-.531.163-.786.208-.254.047-.532.07-.831.07-.925 0-1.639-.256-2.136-.77-.501-.511-.75-1.324-.75-2.436v-5.112h-1.452v-1.9h1.452V9.463h2.674z" fill="#FFF" fill-rule="nonzero"/>
  </g>
</svg>