<svg width="1185" height="408" xmlns="http://www.w3.org/2000/svg" xmlns:xlink="http://www.w3.org/1999/xlink"><defs><path id="b" d="M1055.064.097l237.49 415.42H.264V.097z"/><path id="d" d="M1055.064.097l237.49 415.42H.264V.097z"/><path id="f" d="M1055.064.097l237.49 415.42H.264V.097z"/><path id="h" d="M1055.064.097l237.49 415.42H.264V.097z"/><path id="j" d="M1055.064.097l237.49 415.42H.264V.097z"/><path id="l" d="M1055.064.097l237.49 415.42H.264V.097z"/><path id="n" d="M1055.064.097l237.49 415.42H.264V.097z"/><path id="p" d="M1055.064.097l237.49 415.42H.264V.097z"/><path id="q" d="M1055.064.097l237.49 415.42H.264V.097z"/><path id="r" d="M1055.064.097l237.49 415.42H.264V.097z"/><path id="s" d="M1055.064.097l237.49 415.42H.264V.097z"/><path id="u" d="M1055.064.097l237.49 415.42H.264V.097z"/><path id="w" d="M1055.064.097l237.49 415.42H.264V.097z"/><path id="y" d="M1055.064.097l237.49 415.42H.264V.097z"/><path id="A" d="M1055.064.097l237.49 415.42H.264V.097z"/><path id="C" d="M1055.064.097l237.49 415.42H.264V.097z"/><path id="E" d="M1055.064.097l237.49 415.42H.264V.097z"/><path id="G" d="M1055.064.097l237.49 415.42H.264V.097z"/><path id="I" d="M1055.064.097l237.49 415.42H.264V.097z"/><path id="K" d="M1055.064.097l237.49 415.42H.264V.097z"/><path id="M" d="M1055.064.097l237.49 415.42H.264V.097z"/><path id="O" d="M1055.064.097l237.49 415.42H.264V.097z"/><path id="Q" d="M1055.064.097l237.49 415.42H.264V.097z"/><path id="S" d="M1055.064.097l237.49 415.42H.264V.097z"/><path id="U" d="M1055.064.097l237.49 415.42H.264V.097z"/><path id="W" d="M1055.064.097l237.49 415.42H.264V.097z"/><path id="Y" d="M1055.064.097l237.49 415.42H.264V.097z"/><path id="aa" d="M1055.064.097l237.49 415.42H.264V.097z"/><path id="ac" d="M1055.064.097l237.49 415.42H.264V.097z"/><path id="ae" d="M1055.064.097l237.49 415.42H.264V.097z"/><path id="ag" d="M1055.064.097l237.49 415.42H.264V.097z"/><path id="ai" d="M1055.064.097l237.49 415.42H.264V.097z"/><path id="ak" d="M1055.064.097l237.49 415.42H.264V.097z"/><path id="am" d="M1055.064.097l237.49 415.42H.264V.097z"/><path id="ao" d="M1055.064.097l237.49 415.42H.264V.097z"/><path id="aq" d="M1055.064.097l237.49 415.42H.264V.097z"/><path id="ar" d="M1055.064.097l237.49 415.42H.264V.097z"/><path id="at" d="M1055.064.097l237.49 415.42H.264V.097z"/><path id="av" d="M1055.064.097l237.49 415.42H.264V.097z"/><path id="ax" d="M1055.064.097l237.49 415.42H.264V.097z"/><path id="az" d="M1055.064.097l237.49 415.42H.264V.097z"/><path id="aB" d="M1055.064.097l237.49 415.42H.264V.097z"/><path id="aD" d="M1055.064.097l237.49 415.42H.264V.097z"/><path id="aF" d="M1055.064.097l237.49 415.42H.264V.097z"/><path id="aH" d="M1055.064.097l237.49 415.42H.264V.097z"/><path id="aJ" d="M1055.064.097l237.49 415.42H.264V.097z"/><path id="aL" d="M1055.064.097l237.49 415.42H.264V.097z"/><path id="aN" d="M1055.064.097l237.49 415.42H.264V.097z"/><path id="aP" d="M1055.064.097l237.49 415.42H.264V.097z"/><path id="aQ" d="M1055.064.097l237.49 415.42H.264V.097z"/><path id="aR" d="M1055.064.097l237.49 415.42H.264V.097z"/><path id="aS" d="M1055.064.097l237.49 415.42H.264V.097z"/><path id="aT" d="M1055.064.097l237.49 415.42H.264V.097z"/><path id="aU" d="M1055.064.097l237.49 415.42H.264V.097z"/><path id="aV" d="M1055.064.097l237.49 415.42H.264V.097z"/><path id="aX" d="M1055.064.097l237.49 415.42H.264V.097z"/><path id="aZ" d="M1055.064.097l237.49 415.42H.264V.097z"/><path id="bb" d="M1055.064.097l237.49 415.42H.264V.097z"/><path id="bd" d="M1055.064.097l237.49 415.42H.264V.097z"/><path id="bf" d="M1055.064.097l237.49 415.42H.264V.097z"/><path id="bh" d="M1055.064.097l237.49 415.42H.264V.097z"/><path id="bj" d="M1055.064.097l237.49 415.42H.264V.097z"/><path id="bl" d="M1055.064.097l237.49 415.42H.264V.097z"/><path id="bn" d="M1055.064.097l237.49 415.42H.264V.097z"/><path id="bp" d="M1055.064.097l237.49 415.42H.264V.097z"/><path id="br" d="M1055.064.097l237.49 415.42H.264V.097z"/><path id="bt" d="M1055.064.097l237.49 415.42H.264V.097z"/><path id="bv" d="M1055.064.097l237.49 415.42H.264V.097z"/><path id="bx" d="M1055.064.097l237.49 415.42H.264V.097z"/><path id="bz" d="M1055.064.097l237.49 415.42H.264V.097z"/><path id="bB" d="M1055.064.097l237.49 415.42H.264V.097z"/><path id="bD" d="M1055.064.097l237.49 415.42H.264V.097z"/><path id="bF" d="M1055.064.097l237.49 415.42H.264V.097z"/><path id="bH" d="M1055.064.097l237.49 415.42H.264V.097z"/><path id="bJ" d="M1055.064.097l237.49 415.42H.264V.097z"/><path id="bL" d="M1055.064.097l237.49 415.42H.264V.097z"/><path id="bN" d="M1055.064.097l237.49 415.42H.264V.097z"/><path id="bP" d="M1055.064.097l237.49 415.42H.264V.097z"/><path id="bR" d="M1055.064.097l237.49 415.42H.264V.097z"/><path id="bT" d="M1055.064.097l237.49 415.42H.264V.097z"/><path id="bV" d="M1055.064.097l237.49 415.42H.264V.097z"/><path id="bX" d="M1055.064.097l237.49 415.42H.264V.097z"/><path id="bZ" d="M1055.064.097l237.49 415.42H.264V.097z"/><path id="cb" d="M1055.064.097l237.49 415.42H.264V.097z"/><path id="cd" d="M1055.064.097l237.49 415.42H.264V.097z"/><path id="cf" d="M1055.064.097l237.49 415.42H.264V.097z"/><path id="ch" d="M1055.064.097l237.49 415.42H.264V.097z"/><path id="cj" d="M1055.064.097l237.49 415.42H.264V.097z"/><path id="cl" d="M1055.064.097l237.49 415.42H.264V.097z"/><path id="cn" d="M1055.064.097l237.49 415.42H.264V.097z"/><path id="cp" d="M1055.064.097l237.49 415.42H.264V.097z"/><path id="cr" d="M1055.064.097l237.49 415.42H.264V.097z"/><path id="ct" d="M1055.064.097l237.49 415.42H.264V.097z"/><path id="cv" d="M1055.064.097l237.49 415.42H.264V.097z"/><path id="cx" d="M1055.064.097l237.49 415.42H.264V.097z"/><path id="cz" d="M1055.064.097l237.49 415.42H.264V.097z"/><path id="cB" d="M1055.064.097l237.49 415.42H.264V.097z"/><path id="cD" d="M1055.064.097l237.49 415.42H.264V.097z"/><path id="cF" d="M1055.064.097l237.49 415.42H.264V.097z"/><path id="cH" d="M1055.064.097l237.49 415.42H.264V.097z"/><path id="cJ" d="M1055.064.097l237.49 415.42H.264V.097z"/><path id="cL" d="M1055.064.097l237.49 415.42H.264V.097z"/><path id="cN" d="M1055.064.097l237.49 415.42H.264V.097z"/><path id="cP" d="M1055.064.097l237.49 415.42H.264V.097z"/><path id="cR" d="M1055.064.097l237.49 415.42H.264V.097z"/><path id="cT" d="M1055.064.097l237.49 415.42H.264V.097z"/><path id="cV" d="M1055.064.097l237.49 415.42H.264V.097z"/><linearGradient x1="97.125%" y1="45.599%" x2="60.145%" y2="51.553%" id="a"><stop stop-color="#9A66A8" offset="0%"/><stop stop-color="#61366F" offset="100%"/></linearGradient></defs><g fill="none" fill-rule="evenodd"><path d="M0 408V0h938.5L1176 408H0z" fill="url(#a)"/><g opacity=".05"><g transform="translate(-117 -3)"><mask id="c" fill="#fff"><use xlink:href="#b"/></mask><path fill="#040000" mask="url(#c)" d="M472.729 242.372l-99.801 172.68.266.464h-20.132l-.004-.006 109.872-190.1z"/></g><g transform="translate(-117 -3)"><mask id="e" fill="#fff"><use xlink:href="#d"/></mask><path fill="#040000" mask="url(#e)" d="M492.745 276.983L413.22 414.578l.544.938h-20.138l-.268-.463 89.589-155.01z"/></g><g transform="translate(-117 -3)"><mask id="g" fill="#fff"><use xlink:href="#f"/></mask><path fill="#040000" mask="url(#g)" d="M493.298 414.564l-.55.952h-19.604l10.352-17.914z"/></g><g transform="translate(-117 -3)"><mask id="i" fill="#fff"><use xlink:href="#h"/></mask><path fill="#040000" mask="url(#i)" d="M512.76 311.621l-60.049 103.896h-18.513l-.545-.944 69.306-119.913z"/></g><g transform="translate(-117 -3)"><mask id="k" fill="#fff"><use xlink:href="#j"/></mask><path fill="#040000" mask="url(#k)" d="M503.778 362.513l29.814 51.577-.827 1.425H513.18l.55-.95-20.013-34.64z"/></g><g transform="translate(-117 -3)"><mask id="m" fill="#fff"><use xlink:href="#l"/></mask><path fill="#040000" mask="url(#m)" d="M513.993 344.84l8.982-15.54 12.353 21.382 20.018 34.61 17.46 30.219-.003.005h-19.605l.827-1.429z"/></g><g transform="translate(-117 -3)"><mask id="o" fill="#fff"><use xlink:href="#n"/></mask><path fill="#040000" mask="url(#o)" d="M232.552 242.372l-99.803 172.68.268.464h-20.132l-.004-.006 109.87-190.1z"/></g><g transform="translate(-117 -3)"><mask id="t" fill="#fff"><use xlink:href="#s"/></mask><path fill="#040000" mask="url(#t)" d="M252.566 276.983L173.04 414.578l.546.938h-20.14l-.266-.463 89.589-155.01z"/></g><g transform="translate(-117 -3)"><mask id="v" fill="#fff"><use xlink:href="#u"/></mask><path fill="#040000" mask="url(#v)" d="M253.12 414.564l-.55.952h-19.604l10.353-17.914z"/></g><g transform="translate(-117 -3)"><mask id="x" fill="#fff"><use xlink:href="#w"/></mask><path fill="#040000" mask="url(#x)" d="M272.581 311.621l-60.047 103.896H194.02l-.545-.944 69.308-119.913z"/></g><g transform="translate(-117 -3)"><mask id="z" fill="#fff"><use xlink:href="#y"/></mask><path fill="#040000" mask="url(#z)" d="M263.601 362.513l29.814 51.577-.827 1.425h-19.586l.549-.95-20.014-34.64z"/></g><g transform="translate(-117 -3)"><mask id="B" fill="#fff"><use xlink:href="#A"/></mask><path fill="#040000" mask="url(#B)" d="M273.816 344.84l8.98-15.54 12.354 21.382 20.018 34.61 17.461 30.219-.004.005H313.02l.826-1.429z"/></g><g transform="translate(-117 -3)"><mask id="D" fill="#fff"><use xlink:href="#C"/></mask><path fill="#040000" mask="url(#D)" d="M402.881 86.166L353.061-.053h20.134l39.761 68.788z"/></g><g transform="translate(-117 -3)"><mask id="F" fill="#fff"><use xlink:href="#E"/></mask><path fill="#040000" mask="url(#F)" d="M393.627-.052h20.136l19.48 33.688L423.17 51.06z"/></g><g transform="translate(-117 -3)"><mask id="H" fill="#fff"><use xlink:href="#G"/></mask><path fill="#040000" mask="url(#H)" d="M413.098 103.842L473.145-.05h19.603L422.9 120.799z"/></g><g transform="translate(-117 -3)"><mask id="J" fill="#fff"><use xlink:href="#I"/></mask><path fill="#040000" mask="url(#J)" d="M434.196-.052h18.517l-9.258 16.015z"/></g><g transform="translate(-117 -3)"><mask id="L" fill="#fff"><use xlink:href="#K"/></mask><path fill="#040000" mask="url(#L)" d="M433.112 138.481L513.18-.052h19.585l-89.856 155.474z"/></g><g transform="translate(-117 -3)"><mask id="N" fill="#fff"><use xlink:href="#M"/></mask><path fill="#040000" mask="url(#N)" d="M453.127 173.093L553.2-.052h19.602L462.93 190.056z"/></g><g transform="translate(-117 -3)"><mask id="P" fill="#fff"><use xlink:href="#O"/></mask><path fill="#040000" mask="url(#P)" d="M1132.897 311.842l60.047-103.893h19.603l-69.847 120.85z"/></g><g transform="translate(-117 -3)"><mask id="R" fill="#fff"><use xlink:href="#Q"/></mask><path fill="#040000" mask="url(#R)" d="M1152.91 346.481l80.07-138.533h19.584l-89.855 155.474z"/></g><g transform="translate(-117 -3)"><mask id="T" fill="#fff"><use xlink:href="#S"/></mask><path fill="#040000" mask="url(#T)" d="M1172.926 381.093l100.072-173.145h19.603l-109.873 190.108z"/></g><g transform="translate(-117 -3)"><mask id="V" fill="#fff"><use xlink:href="#U"/></mask><path fill="#040000" mask="url(#V)" d="M162.704 86.166L112.884-.053h20.134l39.76 68.788z"/></g><g transform="translate(-117 -3)"><mask id="X" fill="#fff"><use xlink:href="#W"/></mask><path fill="#040000" mask="url(#X)" d="M153.448-.052h20.137l19.48 33.688-10.072 17.424z"/></g><g transform="translate(-117 -3)"><mask id="Z" fill="#fff"><use xlink:href="#Y"/></mask><path fill="#040000" mask="url(#Z)" d="M172.919 103.842L232.966-.05h19.603l-69.846 120.85z"/></g><g transform="translate(-117 -3)"><mask id="ab" fill="#fff"><use xlink:href="#aa"/></mask><path fill="#040000" mask="url(#ab)" d="M194.019-.052h18.515l-9.256 16.015z"/></g><g transform="translate(-117 -3)"><mask id="ad" fill="#fff"><use xlink:href="#ac"/></mask><path fill="#040000" mask="url(#ad)" d="M192.934 138.481L273.001-.052h19.587l-89.856 155.474z"/></g><g transform="translate(-117 -3)"><mask id="af" fill="#fff"><use xlink:href="#ae"/></mask><path fill="#040000" mask="url(#af)" d="M212.948 173.093L313.02-.052h19.604L222.75 190.056z"/></g><g transform="translate(-117 -3)"><mask id="ah" fill="#fff"><use xlink:href="#ag"/></mask><path fill="#040000" mask="url(#ah)" d="M212.538 207.726l-49.824 86.225-10.075-17.432 40.032-69.25-90.008-155.73V17.632l.004-.005z"/></g><g transform="translate(-117 -3)"><mask id="aj" fill="#fff"><use xlink:href="#ai"/></mask><path fill="#040000" mask="url(#aj)" d="M142.424 258.845l-10.07-17.424 20.024-34.628-49.715-86.014V86.892l69.577 120.377z"/></g><g transform="translate(-117 -3)"><mask id="al" fill="#fff"><use xlink:href="#ak"/></mask><path fill="#040000" mask="url(#al)" d="M142.695 328.582l-40.031-69.262v-33.918l49.836 86.226z"/></g><g transform="translate(-117 -3)"><mask id="an" fill="#fff"><use xlink:href="#am"/></mask><path fill="#040000" mask="url(#an)" d="M122.14 223.748l-19.476-33.697v-33.92l29.28 50.66z"/></g><g transform="translate(-117 -3)"><mask id="ap" fill="#fff"><use xlink:href="#ao"/></mask><path fill="#040000" mask="url(#ap)" d="M122.688 363.205l-20.025-34.644v-33.889l29.821 51.595z"/></g><g transform="translate(-117 -3)"><mask id="as" fill="#fff"><use xlink:href="#ar"/></mask><path fill="#040000" mask="url(#as)" d="M402.893 293.95l-10.075-17.432 40.03-69.248-99.803-172.682 9.801-16.964 109.871 190.1z"/></g><g transform="translate(-117 -3)"><mask id="au" fill="#fff"><use xlink:href="#at"/></mask><path fill="#040000" mask="url(#au)" d="M322.827 52.26l89.589 155.008-29.813 51.577-10.072-17.424 20.023-34.63-79.523-137.59z"/></g><g transform="translate(-117 -3)"><mask id="aw" fill="#fff"><use xlink:href="#av"/></mask><path fill="#040000" mask="url(#aw)" d="M312.476 206.78l9.802-16.962 70.4 121.809-9.804 16.956z"/></g><g transform="translate(-117 -3)"><mask id="ay" fill="#fff"><use xlink:href="#ax"/></mask><path fill="#040000" mask="url(#ay)" d="M372.121 206.791l-9.803 16.957-69.304-119.911 9.801-16.963z"/></g><g transform="translate(-117 -3)"><mask id="aA" fill="#fff"><use xlink:href="#az"/></mask><path fill="#040000" mask="url(#aA)" d="M272.183 206.304l29.814-51.576 10.064 17.414-20.016 34.638 80.617 139.486-9.798 16.94z"/></g><g transform="translate(-117 -3)"><mask id="aC" fill="#fff"><use xlink:href="#aB"/></mask><path fill="#040000" mask="url(#aC)" d="M250.427 177.508l20.02-34.613 12.352-21.38 8.983 15.54-40.032 69.249 100.898 174.573-9.801 16.963-109.879-190.114z"/></g><g transform="translate(-117 -3)"><mask id="aE" fill="#fff"><use xlink:href="#aD"/></mask><path fill="#040000" mask="url(#aE)" d="M583.02 17.631V51.54l-9.798-16.952z"/></g><g transform="translate(-117 -3)"><mask id="aG" fill="#fff"><use xlink:href="#aF"/></mask><path fill="#040000" mask="url(#aG)" d="M563.006 52.26l20.014 34.63v33.891l-29.812-51.58z"/></g><g transform="translate(-117 -3)"><mask id="aI" fill="#fff"><use xlink:href="#aH"/></mask><path fill="#040000" mask="url(#aI)" d="M562.454 189.818l20.565 35.583v33.92l-30.364-52.541z"/></g><g transform="translate(-117 -3)"><mask id="aK" fill="#fff"><use xlink:href="#aJ"/></mask><path fill="#040000" mask="url(#aK)" d="M542.993 86.875l40.028 69.256v33.918l-49.828-86.211z"/></g><g transform="translate(-117 -3)"><mask id="aM" fill="#fff"><use xlink:href="#aL"/></mask><path fill="#040000" mask="url(#aM)" d="M542.175 154.729l10.063 17.413-20.014 34.639 50.796 87.889v33.891l-70.66-122.256z"/></g><g transform="translate(-117 -3)"><mask id="aO" fill="#fff"><use xlink:href="#aN"/></mask><path fill="#040000" mask="url(#aO)" d="M490.607 177.508l20.017-34.613 12.355-21.38 8.982 15.54-40.032 69.249 91.091 157.61v33.921L473.147 207.726z"/></g><g transform="translate(-117 -3)"><mask id="aW" fill="#fff"><use xlink:href="#aV"/></mask><path fill="#040000" mask="url(#aW)" d="M693.865 242.372l99.801 172.68-.266.464h20.132l.004-.006-109.872-190.1z"/></g><g transform="translate(-117 -3)"><mask id="aY" fill="#fff"><use xlink:href="#aX"/></mask><path fill="#040000" mask="url(#aY)" d="M673.85 276.983l79.524 137.595-.544.938h20.138l.268-.463-89.589-155.01z"/></g><g transform="translate(-117 -3)"><mask id="ba" fill="#fff"><use xlink:href="#aZ"/></mask><path fill="#040000" mask="url(#ba)" d="M673.296 414.564l.55.952h19.604l-10.353-17.914z"/></g><g transform="translate(-117 -3)"><mask id="bc" fill="#fff"><use xlink:href="#bb"/></mask><path fill="#040000" mask="url(#bc)" d="M653.834 311.621l60.049 103.896h18.513l.545-.944-69.306-119.913z"/></g><g transform="translate(-117 -3)"><mask id="be" fill="#fff"><use xlink:href="#bd"/></mask><path fill="#040000" mask="url(#be)" d="M662.815 362.513l-29.813 51.577.827 1.425h19.586l-.55-.95 20.013-34.64z"/></g><g transform="translate(-117 -3)"><mask id="bg" fill="#fff"><use xlink:href="#bf"/></mask><path fill="#040000" mask="url(#bg)" d="M652.6 344.84l-8.981-15.54-12.353 21.382-20.018 34.61-17.46 30.219.003.005h19.605l-.827-1.429z"/></g><g transform="translate(-117 -3)"><mask id="bi" fill="#fff"><use xlink:href="#bh"/></mask><path fill="#040000" mask="url(#bi)" d="M934.042 242.372l99.804 172.68-.27.464h20.133l.004-.006-109.87-190.1z"/></g><g transform="translate(-117 -3)"><mask id="bk" fill="#fff"><use xlink:href="#bj"/></mask><path fill="#040000" mask="url(#bk)" d="M914.028 276.983l79.525 137.595-.546.938h20.14l.266-.463-89.589-155.01z"/></g><g transform="translate(-117 -3)"><mask id="bm" fill="#fff"><use xlink:href="#bl"/></mask><path fill="#040000" mask="url(#bm)" d="M913.473 414.564l.55.952h19.605l-10.353-17.914z"/></g><g transform="translate(-117 -3)"><mask id="bo" fill="#fff"><use xlink:href="#bn"/></mask><path fill="#040000" mask="url(#bo)" d="M894.013 311.621l60.047 103.896h18.515l.546-.944-69.309-119.913z"/></g><g transform="translate(-117 -3)"><mask id="bq" fill="#fff"><use xlink:href="#bp"/></mask><path fill="#040000" mask="url(#bq)" d="M902.993 362.513l-29.814 51.577.827 1.425h19.586l-.549-.95 20.014-34.64z"/></g><g transform="translate(-117 -3)"><mask id="bs" fill="#fff"><use xlink:href="#br"/></mask><path fill="#040000" mask="url(#bs)" d="M892.778 344.84l-8.98-15.54-12.354 21.382-20.018 34.61-17.461 30.219.004.005h19.606l-.826-1.429z"/></g><g transform="translate(-117 -3)"><mask id="bu" fill="#fff"><use xlink:href="#bt"/></mask><path fill="#040000" mask="url(#bu)" d="M763.713 86.166l49.82-86.219H793.4l-39.761 68.788z"/></g><g transform="translate(-117 -3)"><mask id="bw" fill="#fff"><use xlink:href="#bv"/></mask><path fill="#040000" mask="url(#bw)" d="M772.967-.052h-20.136l-19.48 33.688 10.073 17.424z"/></g><g transform="translate(-117 -3)"><mask id="by" fill="#fff"><use xlink:href="#bx"/></mask><path fill="#040000" mask="url(#by)" d="M753.496 103.842L693.45-.05h-19.604l69.847 120.85z"/></g><g transform="translate(-117 -3)"><mask id="bA" fill="#fff"><use xlink:href="#bz"/></mask><path fill="#040000" mask="url(#bA)" d="M732.398-.052H713.88l9.258 16.015z"/></g><g transform="translate(-117 -3)"><mask id="bC" fill="#fff"><use xlink:href="#bB"/></mask><path fill="#040000" mask="url(#bC)" d="M733.482 138.481L653.414-.052h-19.585l89.855 155.474z"/></g><g transform="translate(-117 -3)"><mask id="bE" fill="#fff"><use xlink:href="#bD"/></mask><path fill="#040000" mask="url(#bE)" d="M713.467 173.093L613.395-.052h-19.603l109.873 190.108z"/></g><g transform="translate(-117 -3)"><mask id="bG" fill="#fff"><use xlink:href="#bF"/></mask><path fill="#040000" mask="url(#bG)" d="M1003.89 86.166l49.82-86.219h-20.134l-39.76 68.788z"/></g><g transform="translate(-117 -3)"><mask id="bI" fill="#fff"><use xlink:href="#bH"/></mask><path fill="#040000" mask="url(#bI)" d="M1013.146-.052H993.01L973.53 33.636 983.6 51.06z"/></g><g transform="translate(-117 -3)"><mask id="bK" fill="#fff"><use xlink:href="#bJ"/></mask><path fill="#040000" mask="url(#bK)" d="M993.675 103.842L933.628-.05h-19.603l69.846 120.85z"/></g><g transform="translate(-117 -3)"><mask id="bM" fill="#fff"><use xlink:href="#bL"/></mask><path fill="#040000" mask="url(#bM)" d="M972.575-.052H954.06l9.256 16.015z"/></g><g transform="translate(-117 -3)"><mask id="bO" fill="#fff"><use xlink:href="#bN"/></mask><path fill="#040000" mask="url(#bO)" d="M973.66 138.481L893.593-.052h-19.587l89.856 155.474z"/></g><g transform="translate(-117 -3)"><mask id="bQ" fill="#fff"><use xlink:href="#bP"/></mask><path fill="#040000" mask="url(#bQ)" d="M953.646 173.093L853.574-.052h-19.605l109.875 190.108z"/></g><g transform="translate(-117 -3)"><mask id="bS" fill="#fff"><use xlink:href="#bR"/></mask><path fill="#040000" mask="url(#bS)" d="M1071.093 406.584l60.048 103.894h19.602l-69.845-120.85z"/></g><g transform="translate(-117 -3)"><mask id="bU" fill="#fff"><use xlink:href="#bT"/></mask><path fill="#040000" mask="url(#bU)" d="M1091.109 371.945l80.066 138.533h19.587l-89.855-155.473z"/></g><g transform="translate(-117 -3)"><mask id="bW" fill="#fff"><use xlink:href="#bV"/></mask><path fill="#040000" mask="url(#bW)" d="M1111.123 337.333l100.07 173.146h19.606L1120.924 320.37z"/></g><g transform="translate(-117 -3)"><mask id="bY" fill="#fff"><use xlink:href="#bX"/></mask><path fill="#040000" mask="url(#bY)" d="M1190.57 411.71l60.048 103.894h19.603l-69.846-120.85z"/></g><g transform="translate(-117 -3)"><mask id="ca" fill="#fff"><use xlink:href="#bZ"/></mask><path fill="#040000" mask="url(#ca)" d="M1210.586 377.072l80.067 138.533h19.587l-89.856-155.474z"/></g><g transform="translate(-117 -3)"><mask id="cc" fill="#fff"><use xlink:href="#cb"/></mask><path fill="#040000" mask="url(#cc)" d="M1230.6 342.46l100.072 173.146h19.604l-109.874-190.11z"/></g><g transform="translate(-117 -3)"><mask id="ce" fill="#fff"><use xlink:href="#cd"/></mask><path fill="#040000" mask="url(#ce)" d="M954.056 207.726l49.825 86.225 10.074-17.432-40.032-69.25 90.008-155.73V17.632l-.004-.005z"/></g><g transform="translate(-117 -3)"><mask id="cg" fill="#fff"><use xlink:href="#cf"/></mask><path fill="#040000" mask="url(#cg)" d="M1024.17 258.845l10.069-17.424-20.023-34.628 49.715-86.014V86.892l-69.577 120.377z"/></g><g transform="translate(-117 -3)"><mask id="ci" fill="#fff"><use xlink:href="#ch"/></mask><path fill="#040000" mask="url(#ci)" d="M1023.899 328.582l40.031-69.262v-33.918l-49.836 86.226z"/></g><g transform="translate(-117 -3)"><mask id="ck" fill="#fff"><use xlink:href="#cj"/></mask><path fill="#040000" mask="url(#ck)" d="M1044.454 223.748l19.475-33.697v-33.92l-29.28 50.66z"/></g><g transform="translate(-117 -3)"><mask id="cm" fill="#fff"><use xlink:href="#cl"/></mask><path fill="#040000" mask="url(#cm)" d="M1043.906 363.205l20.025-34.644v-33.889l-29.821 51.595z"/></g><g transform="translate(-117 -3)"><mask id="co" fill="#fff"><use xlink:href="#cn"/></mask><path fill="#040000" mask="url(#co)" d="M1063.925 397.84l.005-.008v-33.919l-9.806 16.965z"/></g><g transform="translate(-117 -3)"><mask id="cq" fill="#fff"><use xlink:href="#cp"/></mask><path fill="#040000" mask="url(#cq)" d="M763.7 293.95l10.076-17.432-40.03-69.248L833.55 34.588l-9.8-16.964-109.872 190.1z"/></g><g transform="translate(-117 -3)"><mask id="cs" fill="#fff"><use xlink:href="#cr"/></mask><path fill="#040000" mask="url(#cs)" d="M843.767 52.26l-89.589 155.008 29.813 51.577 10.072-17.424-20.023-34.63 79.523-137.59z"/></g><g transform="translate(-117 -3)"><mask id="cu" fill="#fff"><use xlink:href="#ct"/></mask><path fill="#040000" mask="url(#cu)" d="M854.118 206.78l-9.802-16.962-70.4 121.809 9.804 16.956z"/></g><g transform="translate(-117 -3)"><mask id="cw" fill="#fff"><use xlink:href="#cv"/></mask><path fill="#040000" mask="url(#cw)" d="M794.473 206.791l9.803 16.957 69.304-119.911-9.8-16.963z"/></g><g transform="translate(-117 -3)"><mask id="cy" fill="#fff"><use xlink:href="#cx"/></mask><path fill="#040000" mask="url(#cy)" d="M894.411 206.304l-29.814-51.576-10.064 17.414 20.016 34.638-80.617 139.486 9.798 16.94z"/></g><g transform="translate(-117 -3)"><mask id="cA" fill="#fff"><use xlink:href="#cz"/></mask><path fill="#040000" mask="url(#cA)" d="M916.167 177.508l-20.02-34.613-12.352-21.38-8.982 15.54 40.031 69.249-100.898 174.573 9.801 16.963 109.879-190.114z"/></g><g transform="translate(-117 -3)"><mask id="cC" fill="#fff"><use xlink:href="#cB"/></mask><path fill="#040000" mask="url(#cC)" d="M583.574 17.631V51.54l9.798-16.952z"/></g><g transform="translate(-117 -3)"><mask id="cE" fill="#fff"><use xlink:href="#cD"/></mask><path fill="#040000" mask="url(#cE)" d="M603.588 52.26l-20.014 34.63v33.891l29.812-51.58z"/></g><g transform="translate(-117 -3)"><mask id="cG" fill="#fff"><use xlink:href="#cF"/></mask><path fill="#040000" mask="url(#cG)" d="M604.14 189.818l-20.565 35.583v33.92l30.364-52.541z"/></g><g transform="translate(-117 -3)"><mask id="cI" fill="#fff"><use xlink:href="#cH"/></mask><path fill="#040000" mask="url(#cI)" d="M623.602 86.875l-40.028 69.256v33.918l49.827-86.211z"/></g><g transform="translate(-117 -3)"><mask id="cK" fill="#fff"><use xlink:href="#cJ"/></mask><path fill="#040000" mask="url(#cK)" d="M624.419 154.729l-10.063 17.413 20.014 34.639-50.796 87.889v33.891l70.66-122.256z"/></g><g transform="translate(-117 -3)"><mask id="cM" fill="#fff"><use xlink:href="#cL"/></mask><path fill="#040000" mask="url(#cM)" d="M675.988 177.508l-20.018-34.613-12.354-21.38-8.982 15.54 40.031 69.249-91.091 157.61v33.921l109.873-190.109z"/></g><g transform="translate(-117 -3)"><mask id="cO" fill="#fff"><use xlink:href="#cN"/></mask><path fill="#040000" mask="url(#cO)" d="M1063.939 17.631V51.54l9.798-16.952z"/></g><g transform="translate(-117 -3)"><mask id="cQ" fill="#fff"><use xlink:href="#cP"/></mask><path fill="#040000" mask="url(#cQ)" d="M1083.954 52.26l-20.015 34.63v33.891l29.813-51.58z"/></g><g transform="translate(-117 -3)"><mask id="cS" fill="#fff"><use xlink:href="#cR"/></mask><path fill="#040000" mask="url(#cS)" d="M1084.504 189.818l-20.564 35.583v33.92l30.366-52.541z"/></g><g transform="translate(-117 -3)"><mask id="cU" fill="#fff"><use xlink:href="#cT"/></mask><path fill="#040000" mask="url(#cU)" d="M1103.966 86.875l-40.028 69.256v33.918l49.83-86.211z"/></g><g transform="translate(-117 -3)"><mask id="cW" fill="#fff"><use xlink:href="#cV"/></mask><path fill="#040000" mask="url(#cW)" d="M1104.786 154.729l-10.063 17.413 20.015 34.639-50.8 87.889v33.891l70.661-122.256z"/></g><path d="M1039.354 174.508l-20.02-34.613-12.352-21.38-8.982 15.54 40.031 69.249-91.092 157.61v33.921l109.874-190.109z" fill="#040000"/></g></g></svg>