<svg width="182" height="171" xmlns="http://www.w3.org/2000/svg">
  <path d="M181 78l-25.5 19c-1.5.9-8.8 3.5-6.5-3.1.7-2.3 16-11.2 16.7-13.5.7-2.2-1-2.9-4-1.3-2.6 1.3-21.9 12.3-23.6 12.7-3 .8-6.1-3.1-3.3-5.3 3.7-2.9 17.3-10.2 19.3-11.7 1.4-1.2 2.1-3.8-.6-3.5-2.7.3-20 8.4-22.3 9.1-3.8 1.3-6.4-2-4.4-4.2 2.7-2.7 17.4-8 21.8-11 1.5-1 4.2-2.3 1.4-3.6-1.4-.7-16.8 3.8-20.6 4.7-4.3 1-7.2-2.8-1.1-5.7 7-3.4 25.4-8 27.5-9.2 2.5-1.7 5.5-4.8 2-7.6-4.3-3.5-8 0-15-4.8-1.8-1.2-3-5.5.3-5.7 3.3-.2 9.7.2 12.5.2h7.2A92.6 92.6 0 0 0 90.7 0C40.6 0 0 37.3 0 84.4c0-.3 0 .3 0 0 6-7 15.6-18 19.4-24 5.4-8.4 15-7.5 13.1 4C30.6 76 20.2 83 18.8 86c-1.5 3-4.7 12.3 14 5.8C48.4 86.3 61 76 73.4 70c4-2 8.4-3.9 11-2.9 2.3 1 3.9 3.2 3.8 5.2-.1 2.8-4.8 5-5.7 6-1 1.1-20 13.3-21.6 14.4-1.5 1.1-10.5 7.4-10.8 8.5-.3 1.2-.2 3.7 3.5 2.3L87.2 90c3.8-1.4 10-3 12.4-2.9 2.3.2 8.8 1.8 5.3 8-2 3.6-15.8 5.4-39.2 17.5-3.2 1.6-8.7 6.4-4.3 6.6 6.5.2 20.7-3 23.7-4S98 110 100 109.7c3.8-.7 10.6 1 5.7 8.5-4.9 7.3-40.8 14.6-44 14.6-1.7 0-5.6 2.6-6 3.8-.3 1.2-4 6.1 14.4 4.2 18.4-1.8 26-5.3 27.7-1.5 1.8 3.7 1.6 5.8-5.3 7.4-5.2 1.2-37.3 6.4-53.2 9a94.2 94.2 0 0 0 51.4 15c50 0 90.7-38.2 90.7-85.3 0-2.5-.1-5-.4-7.4z" fill="#61366F" fill-rule="nonzero"/>
</svg>