
<svg width="448px" height="448px" viewBox="0 0 448 448" version="1.1" xmlns="http://www.w3.org/2000/svg" xmlns:xlink="http://www.w3.org/1999/xlink">
    <g id="Page-1" stroke="none" stroke-width="1" fill="none" fill-rule="evenodd">
        <g id="phone-square-alt" fill="#ffffff" fill-rule="nonzero">
            <path d="M400,-7.10542736e-15 L48,-7.10542736e-15 C21.490332,-7.10542736e-15 0,21.490332 0,48 L0,400 C0,426.509668 21.490332,448 48,448 L400,448 C426.509668,448 448,426.509668 448,400 L448,48 C448,21.490332 426.509668,-7.10542736e-15 400,-7.10542736e-15 L400,-7.10542736e-15 Z M383.61,307.37 L368.61,372.37 C367.04104,379.174978 360.983506,384 354,384 C194,384 64,254.29 64,94 C64.2443601,87.1032431 68.9636752,81.1746796 75.63,79.39 L140.63,64.39 C141.738769,64.1555326 142.866986,64.0249674 144,64 C149.907229,64.2981628 155.187324,67.7786606 157.79,73.09 L187.79,143.09 C188.524781,144.977359 188.933923,146.975732 189,149 C188.755802,153.44042 186.781326,157.608357 183.5,160.61 L145.61,191.61 C168.56815,240.269187 207.730813,279.43185 256.39,302.39 L287.39,264.5 C290.391643,261.218674 294.55958,259.244198 299,259 C301.024382,259.06511 303.022916,259.474286 304.91,260.21 L374.91,290.21 C380.224277,292.809338 383.706063,298.091388 384,304 C383.980017,305.133351 383.849397,306.262041 383.61,307.37 Z" id="Shape"></path>
        </g>
    </g>
</svg>